<?xml version="1.0" standalone="no"?>
<!DOCTYPE svg PUBLIC "-//W3C//DTD SVG 20010904//EN"
 "http://www.w3.org/TR/2001/REC-SVG-20010904/DTD/svg10.dtd">
<svg version="1.0" xmlns="http://www.w3.org/2000/svg"
 width="201.000000pt" height="133.000000pt" viewBox="0 0 201.000000 133.000000"
 preserveAspectRatio="xMidYMid meet">

<g transform="translate(0.000000,133.000000) scale(0.100000,-0.100000)"
fill="#000000" stroke="none">
<path d="M142 928 l3 -213 70 -3 70 -3 218 -275 c120 -151 222 -274 225 -273
8 0 424 531 430 548 2 6 -3 11 -12 11 -13 0 -16 14 -16 79 l0 79 95 4 c108 4
137 19 169 82 24 50 15 99 -29 143 l-33 33 -111 0 -111 0 0 -209 c0 -158 3
-210 13 -214 8 -3 9 -9 2 -20 -11 -16 -338 -432 -377 -480 l-23 -27 -135 171
c-74 95 -168 213 -208 263 l-73 91 35 15 c147 64 181 247 65 357 -47 44 -77
53 -180 53 l-89 0 2 -212z m208 170 c26 -14 57 -41 75 -66 25 -36 30 -53 29
-100 -2 -122 -79 -192 -214 -192 l-70 0 0 190 0 190 68 0 c50 0 79 -6 112 -22z
m1001 -7 c24 -24 29 -38 29 -76 0 -38 -5 -52 -29 -76 -28 -28 -33 -29 -125
-29 l-96 0 0 105 0 105 96 0 c92 0 97 -1 125 -29z"/>
<path d="M676 958 c-116 -267 -108 -248 -93 -248 7 0 25 29 41 65 l28 65 110
0 109 0 30 -65 c17 -36 35 -65 40 -65 15 0 11 11 -40 126 -26 60 -67 153 -91
207 -23 53 -45 97 -49 97 -3 0 -42 -82 -85 -182z m138 18 c26 -60 46 -111 46
-113 0 -2 -43 -3 -95 -2 -52 2 -95 7 -95 11 0 5 14 41 31 81 17 40 38 87 46
106 8 18 16 31 18 29 2 -2 24 -53 49 -112z"/>
<path d="M1646 1108 c-7 -18 -48 -112 -90 -209 -42 -97 -76 -179 -76 -183 0
-3 4 -6 10 -6 5 0 23 29 39 65 l30 65 109 0 108 0 30 -62 c16 -34 35 -64 43
-66 9 -3 12 0 8 9 -120 278 -184 419 -189 419 -4 0 -14 -15 -22 -32z m72 -131
c23 -54 42 -103 42 -108 0 -11 -177 -12 -183 -1 -6 11 86 223 93 214 4 -4 25
-51 48 -105z"/>
<path d="M1375 460 c-7 -23 -25 -26 -43 -8 -9 9 -12 9 -12 1 0 -7 -10 -13 -22
-15 -22 -3 -23 -8 -26 -106 l-3 -103 158 3 158 3 0 100 0 100 -47 3 c-36 2
-48 8 -53 23 -5 15 -16 19 -55 19 -40 0 -50 -4 -55 -20z m100 -20 c12 -13 31
-20 57 -20 l38 0 0 -85 0 -85 -146 0 -147 0 7 53 c3 28 6 67 6 85 0 31 1 32
45 32 34 0 47 5 55 20 7 13 21 20 39 20 15 0 36 -9 46 -20z"/>
<path d="M1385 385 c-48 -47 -22 -115 45 -115 29 0 43 6 54 22 35 49 5 118
-49 118 -14 0 -37 -11 -50 -25z m83 -7 c37 -37 -12 -113 -57 -88 -26 13 -36
52 -21 79 12 24 58 29 78 9z"/>
<path d="M710 295 c0 -8 7 -15 15 -15 8 0 15 7 15 15 0 8 -7 15 -15 15 -8 0
-15 -7 -15 -15z"/>
</g>
</svg>
